<svg xmlns="http://www.w3.org/2000/svg" viewBox="0 0 64 64">
  <rect x="2" y="2" width="60" height="60" rx="14" fill="#2D2D2D"/>
  <path d="M 8 50 A 26 26 0 0 1 56 50" fill="none" stroke="#F8F9FA" stroke-width="3" stroke-linecap="round"/>
  <g stroke="#F8F9FA" stroke-width="1.4" stroke-linecap="round" opacity="0.85">
    <line x1="9"    y1="49"   x2="10.5" y2="44"/>
    <line x1="15"   y1="40"   x2="16.8" y2="35.5"/>
    <line x1="22.5" y1="32.5" x2="24.5" y2="28"/>
    <line x1="30"   y1="28"   x2="31"   y2="23.5"/>
    <line x1="32"   y1="27.5" x2="32"   y2="23"/>
    <line x1="34"   y1="28"   x2="33"   y2="23.5"/>
    <line x1="41.5" y1="32.5" x2="39.5" y2="28"/>
    <line x1="49"   y1="40"   x2="47.2" y2="35.5"/>
    <line x1="55"   y1="49"   x2="53.5" y2="44"/>
  </g>
  <ellipse cx="32" cy="42" rx="19" ry="10" fill="#2ECC71"/>
  <line x1="32" y1="32" x2="32" y2="52" stroke="#F8F9FA" stroke-width="0.9" opacity="0.65"/>
  <ellipse cx="32" cy="42" rx="4.5" ry="2.8" fill="none" stroke="#F8F9FA" stroke-width="0.9" opacity="0.65"/>
  <circle cx="32" cy="55" r="5" fill="#F8F9FA"/>
  <polygon points="32,50.5 29.5,52.5 30.5,55.5 33.5,55.5 34.5,52.5" fill="#1a1a1a"/>
</svg>
