<svg xmlns="http://www.w3.org/2000/svg" viewBox="0 0 64 64" role="img" aria-label="SkorNet">
  <title>SkorNet</title>

  <!-- Yar?m daire stadyum kavisi — beyaz -->
  <path d="M 6 52 A 28 28 0 0 1 58 52" fill="none" stroke="#F8F9FA" stroke-width="3.5" stroke-linecap="round"/>

  <!-- Seyirci t?rnaklar? — 9 adet, kavis boyunca -->
  <g stroke="#F8F9FA" stroke-width="1.6" stroke-linecap="round" opacity="0.85">
    <line x1="7"    y1="51"   x2="8.5"  y2="45.5"/>
    <line x1="13"   y1="42"   x2="15"   y2="37"/>
    <line x1="21"   y1="33.5" x2="23.5" y2="29"/>
    <line x1="29.5" y1="29"   x2="30.5" y2="24"/>
    <line x1="32"   y1="28.5" x2="32"   y2="23.5"/>
    <line x1="34.5" y1="29"   x2="33.5" y2="24"/>
    <line x1="43"   y1="33.5" x2="40.5" y2="29"/>
    <line x1="51"   y1="42"   x2="49"   y2="37"/>
    <line x1="57"   y1="51"   x2="55.5" y2="45.5"/>
  </g>

  <!-- Saha elipsi — #2ECC71 ye?il -->
  <ellipse cx="32" cy="44" rx="21" ry="11" fill="#2ECC71"/>

  <!-- Saha çizgileri — beyaz ?effaf -->
  <line x1="32" y1="33" x2="32" y2="55" stroke="#F8F9FA" stroke-width="1" opacity="0.6"/>
  <ellipse cx="32" cy="44" rx="5" ry="3" fill="none" stroke="#F8F9FA" stroke-width="1" opacity="0.6"/>
  <circle  cx="32" cy="44" r="1" fill="#F8F9FA" opacity="0.6"/>

  <!-- Futbol topu -->
  <circle cx="32" cy="57.5" r="5.5" fill="#F8F9FA"/>
  <polygon points="32,52.5 29.2,54.8 30.3,57.8 33.7,57.8 34.8,54.8" fill="#1a1a1a"/>
  <line x1="29.2" y1="54.8" x2="26.5" y2="58"   stroke="#1a1a1a" stroke-width="0.7"/>
  <line x1="34.8" y1="54.8" x2="37.5" y2="58"   stroke="#1a1a1a" stroke-width="0.7"/>
  <line x1="30.3" y1="57.8" x2="28.5" y2="60.5" stroke="#1a1a1a" stroke-width="0.7"/>
  <line x1="33.7" y1="57.8" x2="35.5" y2="60.5" stroke="#1a1a1a" stroke-width="0.7"/>
</svg>
